<svg width="27.000000" height="27.000000" viewBox="0 0 27 27" fill="none" xmlns="http://www.w3.org/2000/svg" xmlns:xlink="http://www.w3.org/1999/xlink">
	<desc>
			Created with Pixso.
	</desc>
	<defs/>
	<path id="Vector" d="M16.62 8.71L10.9 14.45L8.7 12.25C8.58 12.11 8.43 12 8.27 11.92C8.1 11.84 7.92 11.79 7.74 11.78C7.55 11.78 7.37 11.81 7.2 11.87C7.03 11.94 6.87 12.04 6.75 12.17C6.61 12.3 6.51 12.46 6.44 12.63C6.38 12.8 6.35 12.98 6.35 13.17C6.36 13.35 6.41 13.53 6.49 13.7C6.57 13.86 6.68 14.01 6.82 14.13L9.95 17.27C10.08 17.4 10.23 17.5 10.39 17.56C10.55 17.63 10.73 17.66 10.9 17.66C11.25 17.66 11.58 17.52 11.83 17.27L18.5 10.61C18.62 10.48 18.72 10.34 18.79 10.17C18.86 10.01 18.89 9.84 18.89 9.66C18.89 9.49 18.86 9.31 18.79 9.15C18.72 8.99 18.62 8.84 18.5 8.71C18.25 8.47 17.91 8.33 17.56 8.33C17.21 8.33 16.87 8.47 16.62 8.71ZM12.99 -0.34C10.35 -0.34 7.78 0.44 5.58 1.91C3.39 3.37 1.68 5.46 0.67 7.89C-0.34 10.33 -0.6 13.01 -0.08 15.6C0.43 18.18 1.7 20.56 3.57 22.42C5.43 24.29 7.8 25.56 10.39 26.07C12.98 26.59 15.66 26.32 18.1 25.31C20.53 24.3 22.61 22.6 24.08 20.4C25.54 18.21 26.33 15.63 26.33 13C26.33 11.24 25.98 9.51 25.31 7.89C24.64 6.27 23.66 4.8 22.42 3.57C21.18 2.33 19.71 1.35 18.1 0.68C16.48 0.01 14.75 -0.34 12.99 -0.34ZM12.99 23.66C10.88 23.66 8.82 23.04 7.07 21.86C5.31 20.69 3.94 19.03 3.14 17.08C2.33 15.13 2.12 12.98 2.53 10.91C2.94 8.84 3.96 6.94 5.45 5.45C6.94 3.96 8.84 2.94 10.91 2.53C12.98 2.12 15.12 2.33 17.07 3.14C19.02 3.95 20.69 5.31 21.86 7.07C23.03 8.82 23.66 10.89 23.66 13C23.66 15.82 22.53 18.54 20.53 20.54C18.53 22.54 15.82 23.66 12.99 23.66Z" fill="#FFBC57" fill-opacity="1.000000" fill-rule="nonzero"/>
</svg>
